<mxfile host="app.diagrams.net" modified="2022-11-04T15:08:48.148Z" agent="5.0 (Macintosh; Intel Mac OS X 10_15_7) AppleWebKit/537.36 (KHTML, like Gecko) Chrome/106.0.0.0 Safari/537.36" etag="E-es-kZIwHzP0wQsrtHp" version="20.5.1" type="github">
  <diagram id="W95Z5eIXYVugGOT93Xkn" name="第 1 页">
    <mxGraphModel dx="1426" dy="769" grid="1" gridSize="10" guides="1" tooltips="1" connect="1" arrows="1" fold="1" page="1" pageScale="1" pageWidth="827" pageHeight="1169" math="0" shadow="0">
      <root>
        <mxCell id="0" />
        <mxCell id="1" parent="0" />
        <mxCell id="_sXDEryKFTYSJ3YJWp2K-5" value="main thread" style="whiteSpace=wrap;html=1;aspect=fixed;" vertex="1" parent="1">
          <mxGeometry x="100" y="360" width="130" height="130" as="geometry" />
        </mxCell>
        <mxCell id="_sXDEryKFTYSJ3YJWp2K-6" value="thread 1" style="whiteSpace=wrap;html=1;aspect=fixed;" vertex="1" parent="1">
          <mxGeometry x="290" y="360" width="130" height="130" as="geometry" />
        </mxCell>
        <mxCell id="_sXDEryKFTYSJ3YJWp2K-7" value="thread 2" style="whiteSpace=wrap;html=1;aspect=fixed;" vertex="1" parent="1">
          <mxGeometry x="470" y="360" width="130" height="130" as="geometry" />
        </mxCell>
        <mxCell id="_sXDEryKFTYSJ3YJWp2K-8" value="" style="group;fillColor=#97D077;strokeColor=#97D077;strokeWidth=4;" vertex="1" connectable="0" parent="1">
          <mxGeometry x="320" y="80" width="140" height="120" as="geometry" />
        </mxCell>
        <mxCell id="_sXDEryKFTYSJ3YJWp2K-3" value="&lt;br&gt;&lt;br&gt;&lt;br&gt;&lt;br&gt;&lt;br&gt;&lt;br&gt;combiner_ptr&lt;br&gt;previous&amp;nbsp; &amp;nbsp; next&lt;br&gt;Agent" style="rounded=0;whiteSpace=wrap;html=1;fillColor=#97D077;" vertex="1" parent="_sXDEryKFTYSJ3YJWp2K-8">
          <mxGeometry width="140" height="120" as="geometry" />
        </mxCell>
        <mxCell id="_sXDEryKFTYSJ3YJWp2K-2" value="&lt;br&gt;&lt;br&gt;&lt;br&gt;ElementContainer&amp;lt;T&amp;gt;" style="rounded=0;whiteSpace=wrap;html=1;" vertex="1" parent="_sXDEryKFTYSJ3YJWp2K-8">
          <mxGeometry x="10" y="10" width="120" height="60" as="geometry" />
        </mxCell>
        <mxCell id="_sXDEryKFTYSJ3YJWp2K-1" value="T" style="rounded=0;whiteSpace=wrap;html=1;" vertex="1" parent="_sXDEryKFTYSJ3YJWp2K-8">
          <mxGeometry x="50" y="25" width="40" height="30" as="geometry" />
        </mxCell>
        <mxCell id="_sXDEryKFTYSJ3YJWp2K-9" value="" style="shape=table;html=1;whiteSpace=wrap;startSize=0;container=1;collapsible=0;childLayout=tableLayout;" vertex="1" parent="1">
          <mxGeometry x="315" y="260" width="80" height="50" as="geometry" />
        </mxCell>
        <mxCell id="_sXDEryKFTYSJ3YJWp2K-10" value="" style="shape=tableRow;horizontal=0;startSize=0;swimlaneHead=0;swimlaneBody=0;top=0;left=0;bottom=0;right=0;collapsible=0;dropTarget=0;fillColor=none;points=[[0,0.5],[1,0.5]];portConstraint=eastwest;" vertex="1" parent="_sXDEryKFTYSJ3YJWp2K-9">
          <mxGeometry width="80" height="17" as="geometry" />
        </mxCell>
        <mxCell id="_sXDEryKFTYSJ3YJWp2K-11" value="" style="shape=partialRectangle;html=1;whiteSpace=wrap;connectable=0;fillColor=#97D077;top=0;left=0;bottom=0;right=0;overflow=hidden;" vertex="1" parent="_sXDEryKFTYSJ3YJWp2K-10">
          <mxGeometry width="27" height="17" as="geometry">
            <mxRectangle width="27" height="17" as="alternateBounds" />
          </mxGeometry>
        </mxCell>
        <mxCell id="_sXDEryKFTYSJ3YJWp2K-12" value="" style="shape=partialRectangle;html=1;whiteSpace=wrap;connectable=0;fillColor=none;top=0;left=0;bottom=0;right=0;overflow=hidden;" vertex="1" parent="_sXDEryKFTYSJ3YJWp2K-10">
          <mxGeometry x="27" width="26" height="17" as="geometry">
            <mxRectangle width="26" height="17" as="alternateBounds" />
          </mxGeometry>
        </mxCell>
        <mxCell id="_sXDEryKFTYSJ3YJWp2K-13" value="" style="shape=partialRectangle;html=1;whiteSpace=wrap;connectable=0;fillColor=none;top=0;left=0;bottom=0;right=0;overflow=hidden;" vertex="1" parent="_sXDEryKFTYSJ3YJWp2K-10">
          <mxGeometry x="53" width="27" height="17" as="geometry">
            <mxRectangle width="27" height="17" as="alternateBounds" />
          </mxGeometry>
        </mxCell>
        <mxCell id="_sXDEryKFTYSJ3YJWp2K-14" value="" style="shape=tableRow;horizontal=0;startSize=0;swimlaneHead=0;swimlaneBody=0;top=0;left=0;bottom=0;right=0;collapsible=0;dropTarget=0;fillColor=none;points=[[0,0.5],[1,0.5]];portConstraint=eastwest;" vertex="1" parent="_sXDEryKFTYSJ3YJWp2K-9">
          <mxGeometry y="17" width="80" height="16" as="geometry" />
        </mxCell>
        <mxCell id="_sXDEryKFTYSJ3YJWp2K-15" value="" style="shape=partialRectangle;html=1;whiteSpace=wrap;connectable=0;fillColor=none;top=0;left=0;bottom=0;right=0;overflow=hidden;" vertex="1" parent="_sXDEryKFTYSJ3YJWp2K-14">
          <mxGeometry width="27" height="16" as="geometry">
            <mxRectangle width="27" height="16" as="alternateBounds" />
          </mxGeometry>
        </mxCell>
        <mxCell id="_sXDEryKFTYSJ3YJWp2K-16" value="" style="shape=partialRectangle;html=1;whiteSpace=wrap;connectable=0;fillColor=none;top=0;left=0;bottom=0;right=0;overflow=hidden;" vertex="1" parent="_sXDEryKFTYSJ3YJWp2K-14">
          <mxGeometry x="27" width="26" height="16" as="geometry">
            <mxRectangle width="26" height="16" as="alternateBounds" />
          </mxGeometry>
        </mxCell>
        <mxCell id="_sXDEryKFTYSJ3YJWp2K-17" value="" style="shape=partialRectangle;html=1;whiteSpace=wrap;connectable=0;fillColor=none;top=0;left=0;bottom=0;right=0;overflow=hidden;" vertex="1" parent="_sXDEryKFTYSJ3YJWp2K-14">
          <mxGeometry x="53" width="27" height="16" as="geometry">
            <mxRectangle width="27" height="16" as="alternateBounds" />
          </mxGeometry>
        </mxCell>
        <mxCell id="_sXDEryKFTYSJ3YJWp2K-18" value="" style="shape=tableRow;horizontal=0;startSize=0;swimlaneHead=0;swimlaneBody=0;top=0;left=0;bottom=0;right=0;collapsible=0;dropTarget=0;fillColor=none;points=[[0,0.5],[1,0.5]];portConstraint=eastwest;" vertex="1" parent="_sXDEryKFTYSJ3YJWp2K-9">
          <mxGeometry y="33" width="80" height="17" as="geometry" />
        </mxCell>
        <mxCell id="_sXDEryKFTYSJ3YJWp2K-19" value="" style="shape=partialRectangle;html=1;whiteSpace=wrap;connectable=0;fillColor=none;top=0;left=0;bottom=0;right=0;overflow=hidden;" vertex="1" parent="_sXDEryKFTYSJ3YJWp2K-18">
          <mxGeometry width="27" height="17" as="geometry">
            <mxRectangle width="27" height="17" as="alternateBounds" />
          </mxGeometry>
        </mxCell>
        <mxCell id="_sXDEryKFTYSJ3YJWp2K-20" value="" style="shape=partialRectangle;html=1;whiteSpace=wrap;connectable=0;fillColor=none;top=0;left=0;bottom=0;right=0;overflow=hidden;" vertex="1" parent="_sXDEryKFTYSJ3YJWp2K-18">
          <mxGeometry x="27" width="26" height="17" as="geometry">
            <mxRectangle width="26" height="17" as="alternateBounds" />
          </mxGeometry>
        </mxCell>
        <mxCell id="_sXDEryKFTYSJ3YJWp2K-21" value="" style="shape=partialRectangle;html=1;whiteSpace=wrap;connectable=0;fillColor=none;top=0;left=0;bottom=0;right=0;overflow=hidden;pointerEvents=1;" vertex="1" parent="_sXDEryKFTYSJ3YJWp2K-18">
          <mxGeometry x="53" width="27" height="17" as="geometry">
            <mxRectangle width="27" height="17" as="alternateBounds" />
          </mxGeometry>
        </mxCell>
        <mxCell id="_sXDEryKFTYSJ3YJWp2K-22" value="" style="shape=table;html=1;whiteSpace=wrap;startSize=0;container=1;collapsible=0;childLayout=tableLayout;" vertex="1" parent="1">
          <mxGeometry x="490" y="260" width="80" height="53" as="geometry" />
        </mxCell>
        <mxCell id="_sXDEryKFTYSJ3YJWp2K-23" value="" style="shape=tableRow;horizontal=0;startSize=0;swimlaneHead=0;swimlaneBody=0;top=0;left=0;bottom=0;right=0;collapsible=0;dropTarget=0;fillColor=none;points=[[0,0.5],[1,0.5]];portConstraint=eastwest;" vertex="1" parent="_sXDEryKFTYSJ3YJWp2K-22">
          <mxGeometry width="80" height="17" as="geometry" />
        </mxCell>
        <mxCell id="_sXDEryKFTYSJ3YJWp2K-24" value="" style="shape=partialRectangle;html=1;whiteSpace=wrap;connectable=0;fillColor=#97D077;top=0;left=0;bottom=0;right=0;overflow=hidden;" vertex="1" parent="_sXDEryKFTYSJ3YJWp2K-23">
          <mxGeometry width="27" height="17" as="geometry">
            <mxRectangle width="27" height="17" as="alternateBounds" />
          </mxGeometry>
        </mxCell>
        <mxCell id="_sXDEryKFTYSJ3YJWp2K-25" value="" style="shape=partialRectangle;html=1;whiteSpace=wrap;connectable=0;fillColor=none;top=0;left=0;bottom=0;right=0;overflow=hidden;" vertex="1" parent="_sXDEryKFTYSJ3YJWp2K-23">
          <mxGeometry x="27" width="26" height="17" as="geometry">
            <mxRectangle width="26" height="17" as="alternateBounds" />
          </mxGeometry>
        </mxCell>
        <mxCell id="_sXDEryKFTYSJ3YJWp2K-26" value="" style="shape=partialRectangle;html=1;whiteSpace=wrap;connectable=0;fillColor=none;top=0;left=0;bottom=0;right=0;overflow=hidden;" vertex="1" parent="_sXDEryKFTYSJ3YJWp2K-23">
          <mxGeometry x="53" width="27" height="17" as="geometry">
            <mxRectangle width="27" height="17" as="alternateBounds" />
          </mxGeometry>
        </mxCell>
        <mxCell id="_sXDEryKFTYSJ3YJWp2K-27" value="" style="shape=tableRow;horizontal=0;startSize=0;swimlaneHead=0;swimlaneBody=0;top=0;left=0;bottom=0;right=0;collapsible=0;dropTarget=0;fillColor=none;points=[[0,0.5],[1,0.5]];portConstraint=eastwest;" vertex="1" parent="_sXDEryKFTYSJ3YJWp2K-22">
          <mxGeometry y="17" width="80" height="16" as="geometry" />
        </mxCell>
        <mxCell id="_sXDEryKFTYSJ3YJWp2K-28" value="" style="shape=partialRectangle;html=1;whiteSpace=wrap;connectable=0;fillColor=none;top=0;left=0;bottom=0;right=0;overflow=hidden;" vertex="1" parent="_sXDEryKFTYSJ3YJWp2K-27">
          <mxGeometry width="27" height="16" as="geometry">
            <mxRectangle width="27" height="16" as="alternateBounds" />
          </mxGeometry>
        </mxCell>
        <mxCell id="_sXDEryKFTYSJ3YJWp2K-29" value="" style="shape=partialRectangle;html=1;whiteSpace=wrap;connectable=0;fillColor=none;top=0;left=0;bottom=0;right=0;overflow=hidden;" vertex="1" parent="_sXDEryKFTYSJ3YJWp2K-27">
          <mxGeometry x="27" width="26" height="16" as="geometry">
            <mxRectangle width="26" height="16" as="alternateBounds" />
          </mxGeometry>
        </mxCell>
        <mxCell id="_sXDEryKFTYSJ3YJWp2K-30" value="" style="shape=partialRectangle;html=1;whiteSpace=wrap;connectable=0;fillColor=none;top=0;left=0;bottom=0;right=0;overflow=hidden;" vertex="1" parent="_sXDEryKFTYSJ3YJWp2K-27">
          <mxGeometry x="53" width="27" height="16" as="geometry">
            <mxRectangle width="27" height="16" as="alternateBounds" />
          </mxGeometry>
        </mxCell>
        <mxCell id="_sXDEryKFTYSJ3YJWp2K-31" value="" style="shape=tableRow;horizontal=0;startSize=0;swimlaneHead=0;swimlaneBody=0;top=0;left=0;bottom=0;right=0;collapsible=0;dropTarget=0;fillColor=none;points=[[0,0.5],[1,0.5]];portConstraint=eastwest;" vertex="1" parent="_sXDEryKFTYSJ3YJWp2K-22">
          <mxGeometry y="33" width="80" height="20" as="geometry" />
        </mxCell>
        <mxCell id="_sXDEryKFTYSJ3YJWp2K-32" value="" style="shape=partialRectangle;html=1;whiteSpace=wrap;connectable=0;fillColor=none;top=0;left=0;bottom=0;right=0;overflow=hidden;" vertex="1" parent="_sXDEryKFTYSJ3YJWp2K-31">
          <mxGeometry width="27" height="20" as="geometry">
            <mxRectangle width="27" height="20" as="alternateBounds" />
          </mxGeometry>
        </mxCell>
        <mxCell id="_sXDEryKFTYSJ3YJWp2K-33" value="" style="shape=partialRectangle;html=1;whiteSpace=wrap;connectable=0;fillColor=none;top=0;left=0;bottom=0;right=0;overflow=hidden;" vertex="1" parent="_sXDEryKFTYSJ3YJWp2K-31">
          <mxGeometry x="27" width="26" height="20" as="geometry">
            <mxRectangle width="26" height="20" as="alternateBounds" />
          </mxGeometry>
        </mxCell>
        <mxCell id="_sXDEryKFTYSJ3YJWp2K-34" value="" style="shape=partialRectangle;html=1;whiteSpace=wrap;connectable=0;fillColor=none;top=0;left=0;bottom=0;right=0;overflow=hidden;pointerEvents=1;" vertex="1" parent="_sXDEryKFTYSJ3YJWp2K-31">
          <mxGeometry x="53" width="27" height="20" as="geometry">
            <mxRectangle width="27" height="20" as="alternateBounds" />
          </mxGeometry>
        </mxCell>
        <mxCell id="_sXDEryKFTYSJ3YJWp2K-35" value="AgentGroup" style="text;html=1;align=center;verticalAlign=middle;resizable=0;points=[];autosize=1;strokeColor=none;fillColor=none;strokeWidth=4;" vertex="1" parent="1">
          <mxGeometry x="310" y="310" width="90" height="30" as="geometry" />
        </mxCell>
        <mxCell id="_sXDEryKFTYSJ3YJWp2K-36" value="AgentGroup" style="text;html=1;align=center;verticalAlign=middle;resizable=0;points=[];autosize=1;strokeColor=none;fillColor=none;strokeWidth=4;" vertex="1" parent="1">
          <mxGeometry x="485" y="313" width="90" height="30" as="geometry" />
        </mxCell>
        <mxCell id="_sXDEryKFTYSJ3YJWp2K-37" value="" style="shape=flexArrow;endArrow=classic;html=1;rounded=0;entryX=0.25;entryY=1;entryDx=0;entryDy=0;exitX=0;exitY=0;exitDx=0;exitDy=0;" edge="1" parent="1" source="_sXDEryKFTYSJ3YJWp2K-9" target="_sXDEryKFTYSJ3YJWp2K-3">
          <mxGeometry width="50" height="50" relative="1" as="geometry">
            <mxPoint x="280" y="245" as="sourcePoint" />
            <mxPoint x="330" y="195" as="targetPoint" />
          </mxGeometry>
        </mxCell>
        <mxCell id="_sXDEryKFTYSJ3YJWp2K-39" value="" style="curved=1;endArrow=classic;html=1;rounded=0;entryX=0.038;entryY=-0.235;entryDx=0;entryDy=0;entryPerimeter=0;exitX=0;exitY=0.5;exitDx=0;exitDy=0;strokeColor=#97D077;" edge="1" parent="1" source="_sXDEryKFTYSJ3YJWp2K-10" target="_sXDEryKFTYSJ3YJWp2K-23">
          <mxGeometry width="50" height="50" relative="1" as="geometry">
            <mxPoint x="-190" y="420" as="sourcePoint" />
            <mxPoint x="-140" y="370" as="targetPoint" />
            <Array as="points">
              <mxPoint x="400" y="240" />
              <mxPoint x="450" y="240" />
            </Array>
          </mxGeometry>
        </mxCell>
        <mxCell id="_sXDEryKFTYSJ3YJWp2K-40" value="" style="curved=1;endArrow=classic;html=1;rounded=0;strokeColor=#97D077;" edge="1" parent="1">
          <mxGeometry width="50" height="50" relative="1" as="geometry">
            <mxPoint x="500" y="269" as="sourcePoint" />
            <mxPoint x="680" y="269" as="targetPoint" />
            <Array as="points">
              <mxPoint x="560" y="240" />
              <mxPoint x="620" y="230" />
            </Array>
          </mxGeometry>
        </mxCell>
        <mxCell id="_sXDEryKFTYSJ3YJWp2K-50" value="" style="endArrow=classic;html=1;rounded=0;strokeColor=#000000;exitX=0.163;exitY=-0.02;exitDx=0;exitDy=0;exitPerimeter=0;entryX=1;entryY=0.5;entryDx=0;entryDy=0;" edge="1" parent="1" source="_sXDEryKFTYSJ3YJWp2K-9" target="_sXDEryKFTYSJ3YJWp2K-43">
          <mxGeometry width="50" height="50" relative="1" as="geometry">
            <mxPoint x="390" y="300" as="sourcePoint" />
            <mxPoint x="440" y="250" as="targetPoint" />
          </mxGeometry>
        </mxCell>
        <mxCell id="_sXDEryKFTYSJ3YJWp2K-51" value="" style="endArrow=classic;html=1;rounded=0;strokeColor=#000000;exitX=0;exitY=0.5;exitDx=0;exitDy=0;entryX=1;entryY=0.5;entryDx=0;entryDy=0;" edge="1" parent="1" source="_sXDEryKFTYSJ3YJWp2K-23" target="_sXDEryKFTYSJ3YJWp2K-43">
          <mxGeometry width="50" height="50" relative="1" as="geometry">
            <mxPoint x="338.03999999999996" y="269" as="sourcePoint" />
            <mxPoint x="150" y="175" as="targetPoint" />
          </mxGeometry>
        </mxCell>
        <mxCell id="_sXDEryKFTYSJ3YJWp2K-41" value="" style="endArrow=none;html=1;rounded=0;strokeColor=#000000;startArrow=openThin;startFill=0;entryX=1;entryY=0.75;entryDx=0;entryDy=0;exitX=-0.05;exitY=-0.312;exitDx=0;exitDy=0;exitPerimeter=0;" edge="1" parent="1" source="_sXDEryKFTYSJ3YJWp2K-14" target="_sXDEryKFTYSJ3YJWp2K-43">
          <mxGeometry width="50" height="50" relative="1" as="geometry">
            <mxPoint x="130" y="290" as="sourcePoint" />
            <mxPoint x="220" y="320" as="targetPoint" />
          </mxGeometry>
        </mxCell>
        <mxCell id="_sXDEryKFTYSJ3YJWp2K-52" value="" style="group" vertex="1" connectable="0" parent="1">
          <mxGeometry x="110" y="180" width="120" height="90" as="geometry" />
        </mxCell>
        <mxCell id="_sXDEryKFTYSJ3YJWp2K-42" value="&lt;br&gt;&lt;br&gt;&lt;br&gt;&lt;br&gt;&lt;br&gt;reducer" style="shape=ext;double=1;rounded=0;whiteSpace=wrap;html=1;strokeColor=#97D077;strokeWidth=1;fillColor=#FFFFFF;" vertex="1" parent="_sXDEryKFTYSJ3YJWp2K-52">
          <mxGeometry width="120" height="90" as="geometry" />
        </mxCell>
        <mxCell id="_sXDEryKFTYSJ3YJWp2K-43" value="combiner" style="rounded=0;whiteSpace=wrap;html=1;strokeColor=#97D077;strokeWidth=1;fillColor=#FFFFFF;" vertex="1" parent="_sXDEryKFTYSJ3YJWp2K-52">
          <mxGeometry x="30" width="60" height="30" as="geometry" />
        </mxCell>
        <mxCell id="_sXDEryKFTYSJ3YJWp2K-44" value="sampler" style="rounded=0;whiteSpace=wrap;html=1;strokeColor=#97D077;strokeWidth=1;fillColor=#FFFFFF;" vertex="1" parent="_sXDEryKFTYSJ3YJWp2K-52">
          <mxGeometry x="30" y="40" width="60" height="30" as="geometry" />
        </mxCell>
      </root>
    </mxGraphModel>
  </diagram>
</mxfile>
